<svg xmlns="http://www.w3.org/2000/svg" viewBox="0 0 192 192"><defs><style>path{fill:#000;} @media (prefers-color-scheme: dark) {path{fill:#fff;}}</style></defs><title>favicon</title><path d="M47.76,43.1h9.93V71.75H73.43v8.58H57.69V148.9H47.76V80.33H34.22V71.75H47.76Z"/><path d="M93.48,46.72H103V88.39A40.32,40.32,0,0,1,115.64,77a30.81,30.81,0,0,1,15-3.76,26.15,26.15,0,0,1,14.67,4.2,25,25,0,0,1,9.45,11.28q3.06,7.08,3.05,22.19v38H148.3V113.73q0-12.74-1-17-1.75-7.31-6.4-11T128.72,82a23.42,23.42,0,0,0-15.42,5.69,26.74,26.74,0,0,0-9,14.1q-1.35,5.41-1.35,20v27H93.48Z"/><path d="M0,0V192H192V0ZM182,182H10V10H182Z"/></svg>