<svg xmlns="http://www.w3.org/2000/svg">
	<symbol viewBox="0 0 512 512" id="construccion">
		<title>construccion</title><path d="M472.5,397.6H462.3V322.27a40.67,40.67,0,0,0-40.63-40.63H380.25a15.8,15.8,0,0,0-15.79,15.78v17.35H353.84a7.5,7.5,0,1,0,0,15H447.3v68.88a23.52,23.52,0,0,0-16.57,22.45v75.4c0,.17,0,.33,0,.5H155a7.5,7.5,0,1,0,0,15H488.5A23.52,23.52,0,0,0,512,488.5V437.1a39.55,39.55,0,0,0-39.5-39.5Zm-93-100.18a.78.78,0,0,1,.79-.78h41.42a25.68,25.68,0,0,1,24.51,18.13H379.46ZM497,488.5a8.51,8.51,0,0,1-8.5,8.5H446.23a.5.5,0,0,1-.5-.5V478.86h25.63a7.5,7.5,0,0,0,0-15H445.73V445.73h25.63a7.5,7.5,0,0,0,0-15H445.73V421.1a8.51,8.51,0,0,1,8.5-8.5H472.5A24.53,24.53,0,0,1,497,437.1Zm0,0"/><path d="M323.84,329.77a7.5,7.5,0,0,0,0-15H313.2v-38.6A90.28,90.28,0,0,0,346,213.8h9.38a24.09,24.09,0,0,0,24.06-24.07V156.6A23.92,23.92,0,0,0,375,142.7a15.73,15.73,0,0,0,4.43-10.95v-8.28A24.09,24.09,0,0,0,355.4,99.4h-.79V65.48A49,49,0,0,0,305.7,16.57H284.21V15.5A15.52,15.52,0,0,0,268.71,0H243.29a15.52,15.52,0,0,0-15.5,15.5v1.06H206.3a49,49,0,0,0-48.92,48.92V99.4h-.78a24.09,24.09,0,0,0-24.06,24.06v8.29A15.74,15.74,0,0,0,137,142.7a23.92,23.92,0,0,0-4.43,13.9v33.13A24.09,24.09,0,0,0,156.6,213.8H166a90.24,90.24,0,0,0,32.82,62.36v38.61H147.54V297.41a15.81,15.81,0,0,0-15.79-15.78H90.33A40.68,40.68,0,0,0,49.7,322.26V397.6H39.5A39.55,39.55,0,0,0,0,437.1v51.4A23.52,23.52,0,0,0,23.5,512H125a7.5,7.5,0,0,0,0-15H81.24c0-.17,0-.33,0-.5V421.1A23.53,23.53,0,0,0,64.7,398.65V329.77Zm40.63-140a9.08,9.08,0,0,1-9.07,9.07h-9.07V147.53h9.09a9.07,9.07,0,0,1,9,9.07v33.13ZM305.7,31.56a34,34,0,0,1,33.91,33.92V99.4H321.48V90.33a7.5,7.5,0,1,0-15,0V99.4H284.21V31.56ZM242.79,15.5a.5.5,0,0,1,.5-.5h25.42a.5.5,0,0,1,.5.5V99.4H242.79Zm-70.4,50A34,34,0,0,1,206.3,31.56h21.49V99.4H205.52V90.33a7.5,7.5,0,0,0-15,0V99.4H172.39Zm-24.85,58a9.07,9.07,0,0,1,9.06-9.07H355.4a9.08,9.08,0,0,1,9.07,9.07v8.28a.79.79,0,0,1-.79.78H148.32a.78.78,0,0,1-.78-.78Zm0,66.26V156.6a9.06,9.06,0,0,1,9.06-9.06h9.07V198.8H156.6a9.07,9.07,0,0,1-9.06-9.07Zm33.13,16.57V147.54H331.33V206.3a75.33,75.33,0,1,1-150.66,0Zm33.13,79.85a90.13,90.13,0,0,0,84.4,0v28.62H213.8V286.15ZM90.33,296.64h41.42a.78.78,0,0,1,.79.78v17.35H65.82a25.68,25.68,0,0,1,24.51-18.13ZM66.27,430.73H40.64a7.5,7.5,0,1,0,0,15H66.27v18.13H40.64a7.5,7.5,0,1,0,0,15H66.27V496.5a.5.5,0,0,1-.5.5H23.5a8.51,8.51,0,0,1-8.5-8.5V437.1a24.53,24.53,0,0,1,24.5-24.5H57.77a8.51,8.51,0,0,1,8.5,8.5Zm0,0"/>
	</symbol>
	<symbol viewBox="0 0 512 512" id="consultoria">
		<title>consultoria</title><path d="M499.81,288.55l-14.74,11.69L365.93,143.81,434,100.1a7.52,7.52,0,1,0-8.12-12.65l-75,48.11A7.59,7.59,0,0,0,349,146.44l13.64,17.91-9.7,7.43-38.51-12.73a7.93,7.93,0,0,0-2.36-.38H223.94a7.51,7.51,0,0,0-7.29,5.7l-5,19.84-12.53-5.27a7.55,7.55,0,0,0-3.79-.54l-34.84,4.08-11.83-6.87L160,156.11a7.6,7.6,0,0,0-2.75-10.27L11.27,61.59a7.51,7.51,0,0,0-7.51,13l114.37,66-98.71,171-8.15-4.71a7.52,7.52,0,0,0-7.51,13l39.71,22.93a7.58,7.58,0,0,0,10.26-2.75l5.75-9.95,16.21,8.64a31.57,31.57,0,0,0,37.78,44.52,30.81,30.81,0,0,0,6.21,18.55,31.76,31.76,0,0,0,34.85,11,31.52,31.52,0,0,0,26.54,30.7,32,32,0,0,0,5.06.4,31.16,31.16,0,0,0,9.56-1.49,31.58,31.58,0,0,0,26.56,30.66,32,32,0,0,0,5.06.4,31.32,31.32,0,0,0,18.44-6l17.53-12.68a31.53,31.53,0,0,0,9.06-10.17l30.85,16.81a31.4,31.4,0,0,0,15.06,3.86,31.74,31.74,0,0,0,9-1.3,31.56,31.56,0,0,0,22.44-33.79,32.09,32.09,0,0,0,5.68.52,31.52,31.52,0,0,0,31.4-35.08,31.56,31.56,0,0,0,37.11-34.54,31.05,31.05,0,0,0,5.69.53,31.74,31.74,0,0,0,9-1.3,31.58,31.58,0,0,0,19.13-44.76l13.18-9.36,7,9.14a7.59,7.59,0,0,0,10.65,1.34l20.74-16.45a7.52,7.52,0,0,0-9.34-11.78ZM44.48,326.07l-12-7,98.7-171,12,6.95ZM90.31,363A16.55,16.55,0,0,1,94,339.9l53.16-38.46a16.45,16.45,0,0,1,22.8,3.32,16.68,16.68,0,0,1-3.41,23.46l-53.17,38.47A16.55,16.55,0,0,1,90.31,363Zm41.37,29.83c-5.57-7.4-3.42-18.33,3.95-23.66l39.74-28.75a27.3,27.3,0,0,1,4.4-2.67,16.54,16.54,0,0,1,16.09,28.65l-41.28,29.87A16.61,16.61,0,0,1,131.68,392.81Zm51.77,35.94A16.53,16.53,0,0,1,176.36,399l28.32-20.49,1.1-.8a16.46,16.46,0,0,1,22.81,3.33,16.68,16.68,0,0,1-3.43,23.46l-29.4,21.28A16.42,16.42,0,0,1,183.45,428.75Zm77.69,2.94a16.4,16.4,0,0,1-6.67,11l-17.53,12.69a16.54,16.54,0,0,1-19.39-26.79L234,416.72l1.12-.81a16.63,16.63,0,0,1,22.8,3.33A16.4,16.4,0,0,1,261.14,431.69Zm182.94-93.64a16.67,16.67,0,0,1-22.42,6.6L334.78,297.3a7.51,7.51,0,1,0-7.2,13.19l72.81,39.69a16.53,16.53,0,1,1-15.83,29L310.69,339a7.51,7.51,0,0,0-7.19,13.19l59.81,32.6a16.53,16.53,0,0,1-15.84,29l-62.61-34.12a7.51,7.51,0,1,0-7.2,13.19l48.54,26.46a16.53,16.53,0,0,1-15.82,29l-34.05-18.56a31.65,31.65,0,0,0-30-32c.14-.67.26-1.34.36-2A31.65,31.65,0,0,0,217,359.56c.14-.66.27-1.34.37-2a31.65,31.65,0,0,0-29.67-36.14c.14-.66.26-1.34.36-2a31.29,31.29,0,0,0-6.2-23.77h0a31.4,31.4,0,0,0-43.53-6.35L85.92,327.2,67,317.11l74.18-128.49,14,8.11a7.55,7.55,0,0,0,4.65,1l35.35-4.14L208,199l-7.39,29.53a8,8,0,0,0-.22,1.82v64.13a39.58,39.58,0,0,0,79.15,0v-62l1.37-2.19,156.57,85.34A16.68,16.68,0,0,1,444.08,338.05Zm3.59-33.76a29.5,29.5,0,0,0-3-1.86L288.89,217.52l5.78-9.25a7.51,7.51,0,1,0-12.74-8l-16.27,26a7.51,7.51,0,0,0-1.14,4v64.13a24.55,24.55,0,1,1-49.1,0v-63.2L229.8,173.7h81.1L352,187.29a7.56,7.56,0,0,0,6.92-1.16l12.83-9.82,89.9,118Z"/><path d="M462.39,80.49a7.45,7.45,0,0,0,4.05-1.19l42.1-27a7.51,7.51,0,0,0-8.11-12.65l-42.11,27a7.52,7.52,0,0,0,4.07,13.84Z"/>
	</symbol>
	<symbol viewBox="0 0 512 512" id="corporativo">
		<title>corporativo</title><path d="M366.93,477.86H128a8.54,8.54,0,0,0-8.53,8.54v17.06a8.53,8.53,0,1,0,17.06,0v-8.53h230.4a8.54,8.54,0,0,0,0-17.07Zm0,0"/><path d="M187.73,213.33a8.54,8.54,0,0,0,8.53,8.53H230.4a8.53,8.53,0,0,0,8.53-8.53v-51.2a8.53,8.53,0,0,0-8.53-8.53H196.26a8.54,8.54,0,0,0-8.53,8.53Zm17.07-42.66h17.06V204.8H204.8Zm0,0"/><path d="M110.93,102.4H8.53A8.53,8.53,0,0,0,0,110.93V281.6a8.53,8.53,0,0,0,17.06,0V119.47h93.87a8.54,8.54,0,1,0,0-17.07Zm0,0"/><path d="M409.6,418.13a8.53,8.53,0,0,0,8.53,8.53h34.13a8.53,8.53,0,0,0,8.54-8.53v-51.2a8.53,8.53,0,0,0-8.54-8.53H418.13a8.53,8.53,0,0,0-8.53,8.53Zm17.06-42.66h17.07V409.6H426.66Zm0,0"/><path d="M42.67,307.2C.49,307.2,0,417,0,418.13a42.73,42.73,0,0,0,34.13,41.8v43.53a8.54,8.54,0,1,0,17.07,0V459.93a42.73,42.73,0,0,0,34.13-41.8c0-1.11-.48-110.93-42.66-110.93Zm0,136.53a25.64,25.64,0,0,1-25.61-25.6c0-42.51,11.43-93.86,25.61-93.86s25.6,51.35,25.6,93.86a25.64,25.64,0,0,1-25.6,25.6Zm0,0"/><path d="M93.87,256H59.73a8.53,8.53,0,0,0-8.53,8.53V281.6a8.54,8.54,0,0,0,17.07,0v-8.54H85.33v42.67a8.54,8.54,0,1,0,17.07,0v-51.2A8.53,8.53,0,0,0,93.87,256Zm0,0"/><path d="M418.13,221.86h34.13a8.53,8.53,0,0,0,8.54-8.53v-51.2a8.53,8.53,0,0,0-8.54-8.53H418.13a8.53,8.53,0,0,0-8.53,8.53v51.2a8.53,8.53,0,0,0,8.53,8.53Zm8.53-51.19h17.07V204.8H426.66Zm0,0"/><path d="M93.87,153.6H59.73a8.53,8.53,0,0,0-8.53,8.53v51.2a8.53,8.53,0,0,0,8.53,8.53H93.87a8.54,8.54,0,0,0,8.53-8.53v-51.2a8.53,8.53,0,0,0-8.53-8.53Zm-8.54,51.2H68.27V170.67H85.33Zm0,0"/><path d="M273.06,213.33a8.54,8.54,0,0,0,8.54,8.53h34.13a8.54,8.54,0,0,0,8.54-8.53v-51.2a8.54,8.54,0,0,0-8.54-8.53H281.6a8.54,8.54,0,0,0-8.54,8.53Zm17.07-42.66H307.2V204.8H290.13Zm0,0"/><path d="M503.46,102.4H401.07a8.54,8.54,0,1,0,0,17.07h93.86v342.9a25.16,25.16,0,0,0-8.53-1.57,25.77,25.77,0,0,0-4.39.38,34.08,34.08,0,0,0-59.49,0A25.6,25.6,0,1,0,418.13,512H486.4A25.64,25.64,0,0,0,512,486.4V110.93a8.53,8.53,0,0,0-8.54-8.53ZM486.4,494.93H418.13a8.54,8.54,0,0,1,0-17.07,8.4,8.4,0,0,1,4.63,1.4A8.53,8.53,0,0,0,435.69,474a17,17,0,0,1,33.15,0,8.54,8.54,0,0,0,12.94,5.25c5.55-3.59,13.15.8,13.15,7.14a8.54,8.54,0,0,1-8.53,8.53Zm0,0"/><path d="M281.6,119.47h34.13a8.55,8.55,0,0,0,8.54-8.54V59.74a8.54,8.54,0,0,0-8.54-8.54H281.6a8.54,8.54,0,0,0-8.54,8.54v51.19a8.55,8.55,0,0,0,8.54,8.54Zm8.53-51.2H307.2V102.4H290.13Zm0,0"/><path d="M273.06,315.73a8.55,8.55,0,0,0,8.54,8.54h34.13a8.55,8.55,0,0,0,8.54-8.54v-51.2a8.54,8.54,0,0,0-8.54-8.53H281.6a8.54,8.54,0,0,0-8.54,8.53Zm17.07-42.67H307.2V307.2H290.13Zm0,0"/><path d="M196.26,119.47H230.4a8.54,8.54,0,0,0,8.53-8.54V59.74a8.53,8.53,0,0,0-8.53-8.54H196.26a8.54,8.54,0,0,0-8.53,8.54v51.19a8.55,8.55,0,0,0,8.53,8.54Zm8.54-51.2h17.06V102.4H204.8Zm0,0"/><path d="M249.94,412.07a8.53,8.53,0,1,0,12.12,0,8.95,8.95,0,0,0-12.12,0Zm0,0"/><path d="M187.73,315.73a8.55,8.55,0,0,0,8.53,8.54H230.4a8.54,8.54,0,0,0,8.53-8.54v-51.2A8.53,8.53,0,0,0,230.4,256H196.26a8.54,8.54,0,0,0-8.53,8.53Zm17.07-42.67h17.06V307.2H204.8Zm0,0"/><path d="M170.67,366.93a8.53,8.53,0,0,0,8.53,8.53h25.6v76.8a8.53,8.53,0,1,0,17.06,0v-76.8h68.27v76.8a8.54,8.54,0,1,0,17.07,0v-76.8h25.6a8.53,8.53,0,0,0,0-17.06H179.2a8.53,8.53,0,0,0-8.53,8.53Zm0,0"/><path d="M409.6,315.73a8.54,8.54,0,0,0,8.53,8.54h34.13a8.54,8.54,0,0,0,8.54-8.54v-51.2a8.53,8.53,0,0,0-8.54-8.53H418.13a8.53,8.53,0,0,0-8.53,8.53Zm17.06-42.67h17.07V307.2H426.66Zm0,0"/><path d="M366.93,0H145.07a8.54,8.54,0,0,0-8.54,8.53V452.26a8.54,8.54,0,1,0,17.07,0V17.06H358.4v435.2a8.53,8.53,0,1,0,17.06,0V8.53A8.52,8.52,0,0,0,366.93,0Zm0,0"/>
	</symbol>
	<symbol viewBox="0 0 512 512" id="llave">
		<title>llave</title><path d="M503.11,350.32l-3.48-3.47a30.44,30.44,0,0,0-14.14-8L470.16,335a15.29,15.29,0,0,1-6.7-3.62,7.5,7.5,0,0,0-10.18,11,30.38,30.38,0,0,0,13.24,7.15l15.33,3.84a15.47,15.47,0,0,1,7.17,4.07l3.49,3.47a15.54,15.54,0,0,1,3.16,17.25L475,424.1,312.2,261.27,352.52,221l44.83,44.84a15.38,15.38,0,0,1,4,7l4.26,16.14a30.46,30.46,0,0,0,25.07,22.38,15.4,15.4,0,0,1,8.64,4.29,7.5,7.5,0,1,0,10.53-10.68,30.29,30.29,0,0,0-17-8.46,15.41,15.41,0,0,1-12.71-11.34L415.87,269A30.46,30.46,0,0,0,408,255.18l-44.83-44.83,2-2a26.47,26.47,0,0,0,0-37.42l-11.24-11.24a127.32,127.32,0,0,0-37.08-91c-49.42-50-130.62-50.86-181-1.85a128.16,128.16,0,0,0-21.4,27.46,60.72,60.72,0,0,0-19.45,13.1L67.68,134.62a61.26,61.26,0,0,0-1.08,85.43,51,51,0,0,0,12.66,62.33l-67,27.39A19.69,19.69,0,0,0,1.47,335.45L9.05,354A19.63,19.63,0,0,0,34.29,364.9v40.73a7.5,7.5,0,0,0,15,0V358.79L112,333.15l62.74,25.64v97.84a9.81,9.81,0,0,1-9.8,9.79H59.08a9.8,9.8,0,0,1-9.79-9.79v-21a7.5,7.5,0,0,0-15,0v21a24.82,24.82,0,0,0,24.79,24.79H165a24.82,24.82,0,0,0,24.8-24.79V364.9A19.7,19.7,0,0,0,215,354l7.57-18.53a19.7,19.7,0,0,0-10.77-25.68l-67-27.39a50.6,50.6,0,0,0,12.06-14.69,129.26,129.26,0,0,0,69.25,19.79l11.24,11.23A26.3,26.3,0,0,0,256,306.47h0a26.24,26.24,0,0,0,18.7-7.75l2-2L427.93,447.89a7.52,7.52,0,0,0,5.31,2.19c.3,0,.62,0,.92-.05l44.17-5.5a7.53,7.53,0,0,0,5.92-4.37l25.1-55.82a30.62,30.62,0,0,0-6.24-34ZM78.28,145.23l24.45-24.45a128.84,128.84,0,0,0-1.22,72.55,50.91,50.91,0,0,0-25.94,14.28,46.27,46.27,0,0,1,2.71-62.38Zm130.39,181a4.7,4.7,0,0,1,0,3.59l-7.57,18.53a4.7,4.7,0,0,1-6.12,2.56L114.86,318.1a7.46,7.46,0,0,0-5.67,0L29.05,350.86a4.7,4.7,0,0,1-6.12-2.56l-7.57-18.53a4.69,4.69,0,0,1,2.57-6.11l88.53-36.2a14.66,14.66,0,0,1,11.12,0l88.54,36.2a4.67,4.67,0,0,1,2.55,2.52ZM128,275.51l-4.74-1.93a29.54,29.54,0,0,0-22.47,0l-4.74,1.94a36,36,0,1,1,40.16-58.93A45.72,45.72,0,0,1,124.83,222l-.16.05,0,0-.4.11a24.35,24.35,0,0,0-36.55,21.07,24.36,24.36,0,1,0,47-8.92A60.83,60.83,0,0,0,145,228.77a36,36,0,0,1-17,46.74Zm-6.62-32.28a9.36,9.36,0,1,1-17.52-4.56,60,60,0,0,0,7.09.44,60.87,60.87,0,0,0,9.08-.7,9.32,9.32,0,0,1,1.35,4.82Zm134.67,48.24h0a11.42,11.42,0,0,1-8.11-3.36l-13.49-13.49a7.48,7.48,0,0,0-5.53-2.2,114,114,0,0,1-66.86-19.21,51.38,51.38,0,0,0,1-10,50.7,50.7,0,0,0-6.32-24.55l24.78-24.77a60.91,60.91,0,0,0,14.18-22.17,45.46,45.46,0,1,0-15.25-2.35,45.88,45.88,0,0,1-9.54,13.91l-23.36,23.36a50.89,50.89,0,0,0-30.63-14.2A113.92,113.92,0,0,1,146.26,77.56C190.77,34.27,262.49,35,306.14,79.19a112.49,112.49,0,0,1,32.69,83.31A7.55,7.55,0,0,0,341,168l13.49,13.49a11.46,11.46,0,0,1,0,16.2l-90.38,90.39a11.4,11.4,0,0,1-8.1,3.35ZM181.5,107.36a60.08,60.08,0,0,0-5.77-5.08,30.64,30.64,0,1,1,23.4,54.21,61.55,61.55,0,0,0-17.63-49.13Zm-14.79,6.92a46.94,46.94,0,0,1,4.18,3.69,46.4,46.4,0,0,1,13.31,36.85,30.66,30.66,0,0,1-17.49-40.54ZM287.36,286.11l14.23-14.23L461.25,431.54,436,434.69Zm0,0"/><path d="M146.8,443.38a7.5,7.5,0,0,0,7.5-7.5V371.94a7.5,7.5,0,0,0-7.5-7.5H77.25a7.5,7.5,0,0,0-7.5,7.5v63.94a7.5,7.5,0,0,0,7.5,7.5ZM84.75,379.44H139.3v48.94H84.75Zm0,0"/>
	</symbol>
	<symbol viewBox="0 0 512 512" id="mantenimiento">
		<title>mantenimiento</title><path d="M161.16,70.8a7.5,7.5,0,0,0,13-7.5L156.21,32.23a7.5,7.5,0,1,0-13,7.5ZM79.3,212.57H43.43a7.5,7.5,0,0,0,0,15H79.3a7.5,7.5,0,1,0,0-15ZM256,50.87a7.5,7.5,0,0,0,7.5-7.5V7.5a7.5,7.5,0,0,0-15,0V43.37a7.5,7.5,0,0,0,7.5,7.5Zm84.6,22.67a7.51,7.51,0,0,0,10.24-2.74l17.94-31.07a7.5,7.5,0,1,0-13-7.5L337.85,63.3a7.5,7.5,0,0,0,2.75,10.24Zm128,139H432.7a7.5,7.5,0,0,0,0,15h35.87a7.5,7.5,0,0,0,0-15ZM446.59,110a7.51,7.51,0,0,0-10.25-2.74l-31.07,17.94a7.5,7.5,0,0,0,7.5,13l31.07-17.94A7.52,7.52,0,0,0,446.59,110ZM256,78.66h0a141.44,141.44,0,0,0-52.65,10.07,7.5,7.5,0,0,0,5.56,13.93,126.5,126.5,0,0,1,47.09-9h0c69.85,0,126.68,56.77,126.68,126.54a126.88,126.88,0,0,1-53.24,103.12,87.82,87.82,0,0,0-36.76,63.81H263.5V320.19a14,14,0,0,0,2.54-2l43.07-43.06a77.86,77.86,0,0,0,0-110.14L266,121.94a14.23,14.23,0,0,0-20.08,0L202.89,165a77.86,77.86,0,0,0,0,110.14L246,318.2a14,14,0,0,0,2.54,2v66.95H219.33a86.14,86.14,0,0,0-36.13-63.37,126.54,126.54,0,0,1,1.51-208.24,7.5,7.5,0,0,0-8.43-12.4A141.53,141.53,0,0,0,174.57,336a71.09,71.09,0,0,1,29.83,52.63,20.41,20.41,0,0,0-12.67,18.86v12.88a20.26,20.26,0,0,0,4.61,12.89,20.3,20.3,0,0,0-4.61,12.89v12.89a20.43,20.43,0,0,0,20.41,20.39h7.44V495.9a16.12,16.12,0,0,0,16.1,16.1h40.64a16.12,16.12,0,0,0,16.1-16.1V479.47h7.44a20.42,20.42,0,0,0,20.4-20.39V446.19a20.29,20.29,0,0,0-4.6-12.89,20.25,20.25,0,0,0,4.6-12.89V407.53a20.39,20.39,0,0,0-12.66-18.86,72.77,72.77,0,0,1,30.54-53.13,141.9,141.9,0,0,0,59.54-115.33c0-78.06-63.56-141.55-141.68-141.55ZM213.5,264.53a62.85,62.85,0,0,1,0-88.93L256,133.11l42.5,42.49a62.85,62.85,0,0,1,0,88.93l-35,35v-31l17.31-17.31a7.5,7.5,0,1,0-10.6-10.61l-6.71,6.71v-8.93l17.31-17.31a7.5,7.5,0,1,0-10.6-10.61l-6.71,6.71V200a7.5,7.5,0,0,0-15,0v27.28l-6.71-6.71a7.5,7.5,0,1,0-10.6,10.6l17.31,17.32v8.93l-6.71-6.71a7.5,7.5,0,1,0-10.6,10.6l17.31,17.32v20.92ZM277.42,495.9a1.09,1.09,0,0,1-1.1,1.09H235.68a1.09,1.09,0,0,1-1.1-1.09V479.46h42.84Zm27.84-75.49a5.4,5.4,0,0,1-5.4,5.39H286a7.5,7.5,0,0,0,0,15h13.86a5.39,5.39,0,0,1,5.4,5.39v12.89a5.39,5.39,0,0,1-5.4,5.38H212.14a5.39,5.39,0,0,1-5.4-5.38V446.19a5.4,5.4,0,0,1,5.4-5.39H256a7.5,7.5,0,0,0,0-15H212.14a5.4,5.4,0,0,1-5.4-5.39V407.52a5.4,5.4,0,0,1,5.4-5.39h87.72a5.4,5.4,0,0,1,5.4,5.39ZM106.73,125.23,75.66,107.29a7.5,7.5,0,1,0-7.5,13l31.07,17.94a7.5,7.5,0,0,0,7.5-13Zm0,0"/>
	</symbol>
	<symbol viewBox="0 0 512 512" id="remodelacion">
		<title>remodelacion</title><path d="M148.94,281.82H69.5a9.93,9.93,0,0,0-9.93,9.93v79.43a9.94,9.94,0,0,0,9.93,9.93h79.44a9.94,9.94,0,0,0,9.93-9.93V291.75A9.93,9.93,0,0,0,148.94,281.82ZM139,361.25H79.43V301.67H139Z"/><path d="M505.87,210.09a9.92,9.92,0,0,0-10.82,2.15L393.87,313.42h0L275.92,431.37h0l-61.85,61.85a9.92,9.92,0,0,0,7,16.95h281a9.93,9.93,0,0,0,9.93-9.92v-281A9.93,9.93,0,0,0,505.87,210.09ZM492.14,490.33H245.05l37.89-37.89,9.48,9.47a9.93,9.93,0,0,0,14-14L297,438.39l25.28-25.27,9.47,9.48a9.93,9.93,0,1,0,14-14.05l-9.48-9.47,25.27-25.28,9.48,9.48a9.93,9.93,0,0,0,14-14l-9.47-9.48,25.27-25.28,9.48,9.48a9.93,9.93,0,0,0,14-14l-9.48-9.48,25.28-25.28,9.47,9.48a9.93,9.93,0,1,0,14.05-14l-9.48-9.48,37.89-37.89Z"/><path d="M456.23,329.94a10,10,0,0,0-10.83,2.16L333.91,443.59a9.93,9.93,0,0,0,7,17h111.5a9.93,9.93,0,0,0,9.92-9.93V339.12A9.93,9.93,0,0,0,456.23,329.94ZM442.5,440.68H364.9l77.6-77.59Z"/><path d="M197.91,452.17a40.19,40.19,0,0,0,28.51-11.79l83.73-83.73a9.93,9.93,0,0,0-14-14l-63.44,63.44-28.93-28.93L385.16,195.71l28.92,28.93L344.76,294a9.93,9.93,0,1,0,14.05,14L435,231.86a10,10,0,0,0,2.3-3.61l24.83-67.8a9.93,9.93,0,0,0-12.74-12.74l-67.8,24.83a9.89,9.89,0,0,0-3.6,2.31l-19.07,19.06L234.4,69.43a9.93,9.93,0,0,0-14.05,0L70.52,219.26H33.9L227.38,25.79,333.55,132a9.93,9.93,0,1,0,14-14.05L234.4,4.72a10,10,0,0,0-14.05,0L2.91,222.17a9.93,9.93,0,0,0,7,17h9.93V500.26a9.92,9.92,0,0,0,9.93,9.92H187.65a9.93,9.93,0,0,0,0-19.85H39.72V239.12H74.63a10,10,0,0,0,7-2.91L227.38,90.49,344.83,208,197.59,355.19V265.93h69.5a9.93,9.93,0,0,0,0-19.86H187.66a9.94,9.94,0,0,0-9.93,9.93V371.18a10,10,0,0,0,.57,3.3l-8.89,8.89a40.3,40.3,0,0,0,28.5,68.8ZM424.06,206.52l-20.79-20.79,32.8-12ZM183.45,397.41l6.25-6.25,28.93,28.93-6.25,6.25a20.46,20.46,0,0,1-28.93-28.93Z"/><path d="M265.11,189.48a37.73,37.73,0,1,0-37.73,37.73A37.77,37.77,0,0,0,265.11,189.48Zm-55.61,0a17.88,17.88,0,1,1,17.88,17.87A17.9,17.9,0,0,1,209.5,189.48Z"/>
	</symbol>
	<symbol viewBox="0 0 512 512" id="residencial">
		<title>residencial</title><path d="M135.91,462a42.66,42.66,0,0,0-80.36-11.47,36.17,36.17,0,0,0-4.35-2.63V307.2a8.54,8.54,0,0,0-17.07,0V443.73a34.14,34.14,0,0,0,0,68.27H128a25.61,25.61,0,0,0,7.91-50ZM128,494.93H34.13a17.07,17.07,0,1,1,0-34.13c8,0,15,4.62,17.61,11.52a8.54,8.54,0,0,0,16.53-3,25.6,25.6,0,1,1,51.2,0,8.53,8.53,0,0,0,8.53,8.53,8.54,8.54,0,0,1,0,17.07Zm0,0"/><path d="M503.46,68.27H341.33a8.53,8.53,0,1,0,0,17.06h153.6v184.2L262,36.64a8.58,8.58,0,0,0-12.11,0L17.06,269.52V85.33h93.87a8.54,8.54,0,0,0,8.54-8.53V42.67a8.54,8.54,0,0,0-8.54-8.53H102.4V17.06h51.2V34.14h-8.53a8.54,8.54,0,0,0-8.54,8.53V76.8a8.54,8.54,0,0,0,8.54,8.53h25.6a8.53,8.53,0,1,0,0-17.06H153.6V51.2h8.53a8.53,8.53,0,0,0,8.53-8.53V8.53A8.53,8.53,0,0,0,162.13,0H93.87a8.53,8.53,0,0,0-8.54,8.53V42.67a8.53,8.53,0,0,0,8.54,8.53h8.53V68.27H8.53A8.54,8.54,0,0,0,0,76.8L0,290.13A8.54,8.54,0,0,0,5.31,298a8.66,8.66,0,0,0,3.26.65,8.49,8.49,0,0,0,6-2.5L256,54.71,497.43,296.17a8.53,8.53,0,0,0,6,2.5,8.71,8.71,0,0,0,3.27-.65,8.56,8.56,0,0,0,5.26-7.89V76.8a8.52,8.52,0,0,0-8.53-8.53Zm0,0"/><path d="M477.86,443.73V307.2a8.53,8.53,0,0,0-17.06,0V447.94a35.41,35.41,0,0,0-4.35,2.63A42.66,42.66,0,0,0,376.09,462,25.66,25.66,0,0,0,358.4,486.4a24.93,24.93,0,0,0,1.58,8.53H213.33a8.54,8.54,0,0,0,0,17.07H477.86a34.14,34.14,0,1,0,0-68.27Zm0,51.2H384a8.54,8.54,0,0,1,0-17.07,8.53,8.53,0,0,0,8.53-8.53,25.6,25.6,0,0,1,51.2,0,8.54,8.54,0,0,0,16.53,3c2.57-6.9,9.65-11.52,17.6-11.52a17.07,17.07,0,1,1,0,34.13Zm0,0"/><path d="M418.13,290.13H349.87a8.54,8.54,0,0,0-8.54,8.54v93.86H332.8a8.54,8.54,0,0,0,0,17.07H435.2a8.54,8.54,0,0,0,0-17.07h-8.54V298.67a8.53,8.53,0,0,0-8.53-8.54Zm-8.53,102.4H358.4V358.4h51.2Zm0-51.2H358.4V307.2h51.2Zm0,0"/><path d="M341.33,469.33a8.53,8.53,0,0,0-8.53-8.53H307.2V298.67a8.53,8.53,0,0,0-8.53-8.54H213.33a8.53,8.53,0,0,0-8.53,8.54V460.8H179.2a8.53,8.53,0,0,0-8.53,8.53v34.13a8.53,8.53,0,1,0,17.06,0v-25.6H332.8a8.53,8.53,0,0,0,8.53-8.53Zm-51.2-93.86H281.6a8.53,8.53,0,1,0,0,17.06h8.53V460.8H221.86V307.2h68.27Zm0,0"/><path d="M162.13,290.13H93.87a8.54,8.54,0,0,0-8.54,8.54v93.86H76.8a8.54,8.54,0,0,0,0,17.07H179.2a8.54,8.54,0,0,0,0-17.07h-8.53V298.67a8.54,8.54,0,0,0-8.54-8.54Zm-8.53,102.4H102.4V358.4h51.2Zm0-51.2H102.4V307.2h51.2Zm0,0"/>
	</symbol>
</svg>