<svg xmlns="http://www.w3.org/2000/svg">
	<symbol viewBox="0 0 512 512" id="facebook">
		<title>facebook</title><path d="M337.27,85H384V3.61C376,2.5,348.21,0,315.91,0,248.52,0,202.36,42.39,202.36,120.3V192H128v91h74.37V512h91.18V283H364.9l11.32-91H293.51v-62.7c0-26.3,7.11-44.31,43.76-44.31Z"/>
	</symbol>
	<symbol viewBox="0 0 512 512" id="instagram">
		<title>instagram</title><path d="M510.15,150.74c-1.2-27.16-5.59-45.82-11.88-62A130.93,130.93,0,0,0,423.5,14c-16.26-6.29-34.83-10.68-62-11.88C334.16.8,325.48.5,256.1.5S178,.8,150.78,2,105,7.59,88.8,13.88A124.54,124.54,0,0,0,43.47,43.43,125.8,125.8,0,0,0,14,88.65c-6.29,16.27-10.68,34.83-11.88,62C.85,178,.55,186.67.55,256.05s.3,78.06,1.5,105.32,5.59,45.81,11.88,62A130.78,130.78,0,0,0,88.7,498.12c16.27,6.29,34.83,10.68,62,11.88s35.93,1.5,105.31,1.5,78.06-.3,105.32-1.5,45.81-5.59,62-11.88a130.67,130.67,0,0,0,74.78-74.76c6.28-16.27,10.68-34.84,11.87-62s1.5-35.94,1.5-105.32S511.35,178,510.15,150.74Zm-46,208.63c-1.1,24.95-5.3,38.43-8.79,47.42a84.76,84.76,0,0,1-48.52,48.51c-9,3.5-22.55,7.69-47.41,8.78-27,1.2-35,1.5-103.22,1.5s-76.36-.3-103.22-1.5c-25-1.09-38.43-5.28-47.42-8.78a78.52,78.52,0,0,1-29.34-19.07,79.32,79.32,0,0,1-19.07-29.34c-3.49-9-7.69-22.57-8.78-47.42-1.2-27-1.5-35-1.5-103.22s.3-76.37,1.5-103.22c1.09-24.95,5.29-38.43,8.78-47.41A77.45,77.45,0,0,1,76.32,76.27,79.2,79.2,0,0,1,105.67,57.2c9-3.49,22.56-7.68,47.41-8.78,26.95-1.2,35-1.5,103.22-1.5s76.36.3,103.22,1.5c25,1.1,38.43,5.29,47.42,8.78a78.52,78.52,0,0,1,29.34,19.07,79.2,79.2,0,0,1,19.07,29.35c3.49,9,7.69,22.55,8.79,47.41,1.19,27,1.49,35,1.49,103.22S465.33,332.42,464.14,359.37Z"/><path d="M256.1,124.78A131.27,131.27,0,1,0,387.37,256.05,131.31,131.31,0,0,0,256.1,124.78Zm0,216.42a85.15,85.15,0,1,1,85.15-85.15A85.16,85.16,0,0,1,256.1,341.2Z"/><path d="M423.21,119.59A30.65,30.65,0,1,1,392.56,89,30.65,30.65,0,0,1,423.21,119.59Z"/>
	</symbol>
	<symbol viewBox="0 0 512 512" id="whatsapp">
		<title>whatsapp</title><path d="M436.53,74.41A252,252,0,0,0,257.07,0C117.22,0,3.41,113.81,3.35,253.69A253.25,253.25,0,0,0,37.22,380.53L1.22,512l134.5-35.28A253.47,253.47,0,0,0,257,507.6h.11c139.83,0,253.65-113.82,253.7-253.71A252.1,252.1,0,0,0,436.53,74.41ZM257.07,464.75H257a210.54,210.54,0,0,1-107.33-29.39l-7.7-4.57L62.14,451.73l21.3-77.82-5-8A210.32,210.32,0,0,1,46.19,253.71c0-116.27,94.64-210.86,211-210.86a210.91,210.91,0,0,1,210.79,211C467.89,370.15,373.3,464.75,257.07,464.75ZM372.73,306.82c-6.33-3.18-37.5-18.51-43.31-20.63s-10-3.17-14.26,3.18S298.78,310,295.08,314.22s-7.39,4.76-13.73,1.59-26.77-9.87-51-31.47c-18.85-16.81-31.57-37.57-35.27-43.91s0-9.45,2.78-12.94c6.86-8.52,13.74-17.45,15.85-21.68s1.05-7.93-.53-11.11-14.26-34.37-19.54-47.07c-5.15-12.36-10.38-10.69-14.27-10.88-3.69-.18-7.92-.22-12.15-.22a23.3,23.3,0,0,0-16.91,7.93c-5.81,6.35-22.18,21.68-22.18,52.89s22.72,61.34,25.88,65.57,44.71,68.27,108.3,95.72A361.43,361.43,0,0,0,298.47,372c15.19,4.83,29,4.14,39.93,2.51,12.18-1.82,37.5-15.34,42.79-30.14s5.28-27.5,3.69-30.15S379.07,310,372.73,306.82Z"/>
	</symbol>
	<symbol viewBox="0 0 512 512" id="email">
		<title>email</title><path d="M464,64H48A48.05,48.05,0,0,0,0,112V400a48.05,48.05,0,0,0,48,48H464a48.05,48.05,0,0,0,48-48V112A48.05,48.05,0,0,0,464,64Zm0,32a15.86,15.86,0,0,1,6.13,1.24L256,282.83,41.87,97.24A15.86,15.86,0,0,1,48,96Zm0,320H48a16,16,0,0,1-16-16V131.05l213.52,185a16,16,0,0,0,21,0L480,131.05V400A16,16,0,0,1,464,416Z"/>
	</symbol>
</svg>