<svg xmlns="http://www.w3.org/2000/svg">
	<symbol viewBox="0 0 512 512" id="construccion">
		<title>construccion</title><path d="M8.54,512H418.13a8.54,8.54,0,0,0,8.54-8.54v-76.8H486.4a8.54,8.54,0,0,0,8.54-8.53V332.8a8.54,8.54,0,0,0-8.54-8.54H426.67v-76.8a8.53,8.53,0,0,0-8.54-8.53H402.47A19.74,19.74,0,0,0,399,223l-38.56-51.4,17.8-13.35A29.5,29.5,0,0,0,390,132.92l-.85-15.37a12.45,12.45,0,0,1,5-10.68l17.8-13.35,7.49,10a8.54,8.54,0,0,0,5.62,3.33,8.11,8.11,0,0,0,1.21.08,8.48,8.48,0,0,0,5.12-1.71l70.4-52.81a25.59,25.59,0,0,0,5.12-35.83l-4.74-6.33A25.63,25.63,0,0,0,466.3,5.12L395.9,57.93a8.54,8.54,0,0,0-1.71,11.95l7.49,10-17.8,13.35a29.49,29.49,0,0,0-11.77,25.28l.85,15.37a12.44,12.44,0,0,1-5,10.67l-17.8,13.36-38.56-51.4a19.82,19.82,0,0,0-17.37-8A19,19,0,0,0,279,108.45L208.84,238.93H8.54A8.53,8.53,0,0,0,0,247.46V332.8a8.53,8.53,0,0,0,8.54,8.53H68.27V409.6H8.54A8.53,8.53,0,0,0,0,418.13v85.33A8.54,8.54,0,0,0,8.54,512Zm468-493.23a8.54,8.54,0,0,1,11.95,1.7l4.74,6.33a8.53,8.53,0,0,1-1.71,11.94l-63.58,47.7-15-20ZM153.6,426.66H273.07v68.27H153.6Zm68.27-85.33H341.33V409.6H221.87ZM409.6,494.93H290.13V426.66H409.6Zm68.27-85.33H358.4V341.33H477.87ZM409.6,324.26H290.13V274.57L377.48,256H409.6ZM294,116.54a1.78,1.78,0,0,1,1.56-1h.17a2.84,2.84,0,0,1,2.26,1.21l38.55,51.4-35.2,26.41a8.54,8.54,0,1,0,10.24,13.66l35.2-26.41,38.56,51.39a2.74,2.74,0,0,1,.47,2.68,1.79,1.79,0,0,1-1.39,1.21l-169.3,36a2.78,2.78,0,0,1-2.71-1.16,2.73,2.73,0,0,1-.35-2.92ZM198.75,282.16a19.52,19.52,0,0,0,19.91,7.61l54.41-11.57v46.06H153.6V256h46.06L197,260.92A19.6,19.6,0,0,0,198.75,282.16ZM17.07,256H136.54v68.27H17.07Zm68.26,85.34H204.8V409.6H85.33ZM17.07,426.66H136.54v68.27H17.07Z"/>
	</symbol>
	<symbol viewBox="0 0 512 512" id="consultoria">
		<title>consultoria</title><path d="M481.28,0H235.52A30.75,30.75,0,0,0,204.8,30.72V266.24a10.26,10.26,0,0,0,16.8,7.87l58.59-48.83h27a71.63,71.63,0,0,0,32.61,60,92.19,92.19,0,0,0-53.09,83.35v61.44H257.08l6.86-68.63a30.74,30.74,0,0,0-27.56-33.62c-1-.1-2-.15-3-.15H163.83a101.26,101.26,0,0,0-21.38-12.26,71.51,71.51,0,0,0,19.47-99.25c-.2-.31-.41-.61-.62-.91l-.2-.27A71.12,71.12,0,0,0,101,184.45a40.87,40.87,0,1,0-64.12,42.68A71.37,71.37,0,0,0,62.6,315.57a102.67,102.67,0,0,0-39.83,31A51.18,51.18,0,0,0,0,389.12V501.76A10.24,10.24,0,0,0,10.23,512H481.28A30.75,30.75,0,0,0,512,481.28V307.2a30.75,30.75,0,0,0-30.72-30.72H429a71.45,71.45,0,0,0,21.61-51.2h30.72A30.75,30.75,0,0,0,512,194.56V30.72A30.75,30.75,0,0,0,481.28,0ZM428.6,213.56a51.21,51.21,0,0,1-38-38A51.21,51.21,0,0,1,428.6,213.56Zm-61.44-38a51.21,51.21,0,0,1-38,38A51.21,51.21,0,0,1,367.16,175.56Zm-60,193.08a71.68,71.68,0,0,1,143.36,0v61.44H307.2ZM204.8,450.56h21.82L204.8,483.3Zm38.76-91.14-7.07,70.66H204.8V409.6a102.74,102.74,0,0,0-20.64-61.44h49.21a10.23,10.23,0,0,1,10.24,10.24C243.61,358.74,243.59,359.08,243.56,359.42ZM102.4,307.2a51.23,51.23,0,0,1-46.84-30.69,71.37,71.37,0,0,0,97.69-23.95,50.86,50.86,0,0,1-46.95,54.5C105,307.16,103.7,307.2,102.4,307.2Zm-41-133.12A20.48,20.48,0,1,1,41,194.56,20.48,20.48,0,0,1,61.44,174.08Zm39.46,30.86a50.35,50.35,0,0,1,41.4,19.37,50.93,50.93,0,0,1-90.15,22.5A50.84,50.84,0,0,1,55.78,235,40.51,40.51,0,0,0,100.9,204.94Zm22,286.58H20.48V389.12A30.75,30.75,0,0,1,51.2,358.4h41a30.75,30.75,0,0,1,30.72,30.72ZM92.16,337.92H63.55a78.27,78.27,0,0,1,33.38-10.06,81.91,81.91,0,0,1,87.21,76.25c.12,1.82.18,3.66.18,5.49v81.92h-41V389.12A51.26,51.26,0,0,0,92.16,337.92ZM491.52,481.28a10.25,10.25,0,0,1-10.24,10.24H223.93l27.31-41h230a10.25,10.25,0,0,1,10.24,10.24Zm0-174.08V432a30.09,30.09,0,0,0-10.24-1.89H471V368.64A92,92,0,0,0,436.68,297h44.6A10.25,10.25,0,0,1,491.52,307.2Zm-162.9-72.64a71.75,71.75,0,0,0,50.26-34,71.75,71.75,0,0,0,50.26,34,51.09,51.09,0,0,1-100.52,0Zm162.9-40a10.25,10.25,0,0,1-10.24,10.24H447.54A71.73,71.73,0,0,0,429,174.08h11.37a10.24,10.24,0,0,0,0-20.48H276.48a10.24,10.24,0,0,0,0,20.48h52.33a71.73,71.73,0,0,0-18.59,30.72H276.48a10.26,10.26,0,0,0-6.56,2.37l-44.64,37.21V30.72a10.25,10.25,0,0,1,10.24-10.24H481.28a10.25,10.25,0,0,1,10.24,10.24Z"/><path d="M440.32,51.2H276.48a10.24,10.24,0,0,0,0,20.48H440.32a10.24,10.24,0,1,0,0-20.48Z"/><path d="M440.32,102.4H276.48a10.24,10.24,0,0,0,0,20.48H440.32a10.24,10.24,0,1,0,0-20.48Z"/>
	</symbol>
	<symbol viewBox="0 0 512 512" id="corporativo">
		<title>corporativo</title><path d="M416,297.28a10.67,10.67,0,1,1,0,21.33H373.33a10.67,10.67,0,0,1,0-21.33Z"/><path d="M416,361.28a10.67,10.67,0,1,1,0,21.33H373.33a10.67,10.67,0,0,1,0-21.33Z"/><path d="M416,425.28a10.67,10.67,0,1,1,0,21.33H373.33a10.67,10.67,0,0,1,0-21.33Z"/><path d="M277.33,489.28V500A10.56,10.56,0,0,0,288,510.61H202.67A10.56,10.56,0,0,0,213.33,500V489.28Z"/><path d="M224,105.28a10.67,10.67,0,1,1,0,21.33H181.33a10.67,10.67,0,0,1,0-21.33Z"/><path d="M234.67,180A10.56,10.56,0,0,1,224,190.61H181.33a10.67,10.67,0,0,1,0-21.33H224A10.57,10.57,0,0,1,234.67,180Z"/><path d="M224,233.28a10.67,10.67,0,1,1,0,21.33H181.33a10.67,10.67,0,0,1,0-21.33Z"/><path d="M224,297.28a10.67,10.67,0,1,1,0,21.33H181.33a10.67,10.67,0,0,1,0-21.33Z"/><path d="M128,308a10.56,10.56,0,0,1-10.67,10.66H74.67a10.67,10.67,0,1,1,0-21.33h42.66A10.56,10.56,0,0,1,128,308Z"/><path d="M117.33,105.28a10.67,10.67,0,1,1,0,21.33H74.67a10.67,10.67,0,1,1,0-21.33Z"/><path d="M117.33,169.28a10.67,10.67,0,1,1,0,21.33H74.67a10.67,10.67,0,1,1,0-21.33Z"/><path d="M117.33,233.28a10.67,10.67,0,1,1,0,21.33H74.67a10.67,10.67,0,1,1,0-21.33Z"/><path d="M192,393.28a10.71,10.71,0,0,0-10.67-10.67h-64a10.56,10.56,0,0,0-10.66,10.67v96H85.33v-96a32,32,0,0,1,32-32h64a32,32,0,0,1,32,32v96H192Z"/><path d="M106.67,489.28H213.33V500a10.56,10.56,0,0,1-10.66,10.66H96A10.56,10.56,0,0,1,85.33,500V489.28Z"/><path d="M486.61,229.87,298.67,192.53v21.76l183.68,36.27A10.73,10.73,0,0,1,490.67,261v217.6A10.7,10.7,0,0,1,480,489.28H298.67V500a10.6,10.6,0,0,1-3.85,8.25,10.6,10.6,0,0,0,3.85-8.25V70.08a31.88,31.88,0,0,0-26.88-31.57L37.33,2.88a32,32,0,0,0-26,7.25A31.41,31.41,0,0,0,0,34.45V478.61a32,32,0,0,0,32,32H96A10.56,10.56,0,0,1,85.33,500V489.28H32a10.7,10.7,0,0,1-10.67-10.67V34.45a10.18,10.18,0,0,1,3.84-8.1A10.06,10.06,0,0,1,32,23.79a6,6,0,0,1,1.92.21L268.37,59.41a10.8,10.8,0,0,1,9,10.67v131.2h0V500A10.56,10.56,0,0,0,288,510.61H480a32,32,0,0,0,32-32V261A31.52,31.52,0,0,0,486.61,229.87Z"/>
	</symbol>
	<symbol viewBox="0 0 512 512" id="llave">
		<title>llave</title><circle cx="364" cy="140.06" r="32"/><path d="M506.48,165.94C495.8,138.74,476.21,99.5,443.56,67S372.21,15.6,345.37,5.34a80.42,80.42,0,0,0-85.3,18.08l-78.54,78.17a80,80,0,0,0-16.69,88.72c4.12,9.28,8.6,18.35,13.39,27.11L5.86,389.79A20,20,0,0,0,0,403.93v88a20,20,0,0,0,20,20h88a20,20,0,0,0,20-20v-36h36a20,20,0,0,0,20-20v-36h36a20,20,0,1,0,0-40H164a20,20,0,0,0-20,20v36H108a20,20,0,0,0-20,20v36H40V412.22L217.35,234.86a20,20,0,0,0,3-24.51,323,323,0,0,1-18.92-36.29,39.81,39.81,0,0,1,8.36-44.12l78.54-78.17a40.36,40.36,0,0,1,42.8-9.06c23.22,8.87,56.69,25.21,84.26,52.65,27.73,27.6,44.62,61.57,53.9,85.2a39.7,39.7,0,0,1-9,42.68l-79.49,79.12a40.28,40.28,0,0,1-44,8.58,260.88,260.88,0,0,1-36-18.37,20,20,0,0,0-20.93,34.09,300.31,300.31,0,0,0,41.57,21.21A80.15,80.15,0,0,0,409,330.71l79.49-79.12A79.69,79.69,0,0,0,506.48,165.94Z"/>
	</symbol>
	<symbol viewBox="0 0 512 512" id="mantenimiento">
		<title>mantenimiento</title><path d="M346.85,155.15a10,10,0,1,0,10,10A10,10,0,0,0,346.85,155.15Z"/><path d="M165.15,336.84a10,10,0,1,0,10,10A10,10,0,0,0,165.15,336.84Z"/><path d="M499.57,61.52a10,10,0,0,0-9.36,2.7L448.75,106H428.88L407,83.33V63.18l40.86-41.47a10,10,0,0,0-3.93-16.49A100.07,100.07,0,0,0,315.38,125.91l-73.66,73.66L119,76.57V52.43a10,10,0,0,0-4.85-8.57L43.44,1.43a10,10,0,0,0-12.21,1.5L3,31.21A10,10,0,0,0,1.44,43.43l42.42,70.7A10,10,0,0,0,52.43,119H76.57L199.3,242l-73.38,73.38a98.87,98.87,0,0,0-84.27,15.45A100,100,0,0,0,5.22,443.92a10,10,0,0,0,16.58,3.85L63.25,406h20L106,428.76v20L64.22,490.2a10,10,0,0,0,3.85,16.57,100,100,0,0,0,113.1-36.43,98.89,98.89,0,0,0,15.45-84.26l58.93-58.93,13.5,14.66L262.86,348A10,10,0,0,0,277,362.15l5.61-5.61L409.28,494.12l.29.3a60,60,0,0,0,84.86-84.86l-.32-.3L356.31,282.84l5.55-5.55a10,10,0,0,0-14.15-14.14l-6.15,6.16-14.69-13.48,59.22-59.22A100.07,100.07,0,0,0,506.78,68.07,10,10,0,0,0,499.57,61.52ZM87.79,101.93a9.9,9.9,0,0,0-7.07-2.83H58.1L22.61,39.83,39.85,22.59,99,58.09V80.71a10,10,0,0,0,2.93,7.06l125.65,126-14.14,14.14ZM342.16,297,480.43,423.84a40,40,0,0,1-56.59,56.58l-127.07-138Zm-14.75-13.54-44.2,44.19L269.71,313l43-43ZM412,180a80.06,80.06,0,0,1-25.56-4.17,10,10,0,0,0-10.26,2.41L178.24,376.17a10,10,0,0,0-2.4,10.26A80.09,80.09,0,0,1,100,492a81.42,81.42,0,0,1-8.71-.47L123.05,460a10,10,0,0,0,3-7.1V424.62a10,10,0,0,0-2.93-7.07L94.45,388.92A10,10,0,0,0,87.38,386H59.09A10,10,0,0,0,52,389L20.47,420.71A81.47,81.47,0,0,1,20,412a80.08,80.08,0,0,1,105.56-75.83,10,10,0,0,0,10.26-2.41L333.76,135.82a10,10,0,0,0,2.4-10.26A80.08,80.08,0,0,1,412,20a81.21,81.21,0,0,1,9,.5l-31.1,31.56a10,10,0,0,0-2.87,7V87.37a10,10,0,0,0,2.8,6.94l27.63,28.63a10,10,0,0,0,7.19,3.06h28.29a10,10,0,0,0,7.1-3l31.51-31.76A79.21,79.21,0,0,1,492,100,80.08,80.08,0,0,1,412,180Z"/><path d="M311.5,186.36,186.36,311.49a10,10,0,0,0,14.14,14.14L325.64,200.5a10,10,0,0,0-14.14-14.14Z"/><path d="M437.86,452A10,10,0,1,0,452,437.84L361.85,348a10,10,0,0,0-14.12,14.16Z"/>
	</symbol>
	<symbol viewBox="0 0 512 512" id="remodelacion">
		<title>remodelacion</title><path d="M451.38,45.78H361.66v45L256,.71.5,218.46l60.12,43.13V481.38H.82v29.91H511.18V481.38h-59.8V261.59l60.12-43.13-60.12-51.24Zm-59.81,29.9h29.9v66.06l-29.9-25.49ZM182.79,329.86H329.21c-10.07,48.34-55.65,57.07-58.26,58.72v92.8h-29.9v-92.8C238.41,386.91,192.86,378.22,182.79,329.86ZM211.14,300H182.78a74.81,74.81,0,0,1,28.36-44.46Zm89.72,0V255.5A74.81,74.81,0,0,1,329.22,300Zm0,181.42V409.1a104.62,104.62,0,0,0,59.8-94.18c0-84.77-88-104.2-89.71-105.41V300h-29.9V209.51c-3.47,2.38-89.72,19.24-89.72,105.41a104.63,104.63,0,0,0,59.81,94.18v72.28H90.53V260.78L256,118.82l165.47,142v220.6ZM437.25,234.92,256,79.42,74.75,234.92,49,216.44,256,40,463,216.44Z"/>
	</symbol>
	<symbol viewBox="0 0 512 512" id="residencial">
		<title>residencial</title><path d="M426.34,276.12a15.09,15.09,0,0,0-15.11,15.08V446.11H327.89V291.2a15.09,15.09,0,0,0-15.1-15.08H199.22a15.1,15.1,0,0,0-15.11,15.08V446.11H100.77V291.2a15.11,15.11,0,0,0-30.22,0v170a15.09,15.09,0,0,0,15.11,15.08H426.34a15.1,15.1,0,0,0,15.11-15.08v-170A15.1,15.1,0,0,0,426.34,276.12Zm-212,170V306.28h83.35V446.11Z"/><path d="M507.57,280.54,266.67,40.16a15.12,15.12,0,0,0-21.36,0L4.42,280.54a15.09,15.09,0,1,0,21.37,21.32L256,72.14,486.21,301.86a15.09,15.09,0,1,0,21.36-21.32Z"/>
	</symbol>
</svg>