<svg xmlns="http://www.w3.org/2000/svg"><symbol viewBox="0 0 380 380" id="logo"><title>Treehous</title><path d="M66,81.2h9.2v26.55H89.8v8H75.21v63.55H66V115.71H53.45v-8H66Z"/><path d="M108.87,107.75h9.4V118.2a33.08,33.08,0,0,1,8.87-9.23,17.48,17.48,0,0,1,9.73-3.06,16.74,16.74,0,0,1,8.15,2.44l-4.8,7.75a12.86,12.86,0,0,0-4.87-1.25,13.31,13.31,0,0,0-8.87,3.78q-4.28,3.78-6.51,11.73-1.71,6.12-1.7,24.72v24.18h-9.4Z"/><path d="M221.27,155.54l7.75,4.07a42.09,42.09,0,0,1-8.81,12.09,35,35,0,0,1-11.25,7,39.28,39.28,0,0,1-14.15,2.4q-17.49,0-27.36-11.47a38.65,38.65,0,0,1-9.87-25.92,38.25,38.25,0,0,1,8.35-24.26q10.59-13.53,28.35-13.54,18.3,0,29.21,13.87,7.77,9.79,7.9,24.45H167q.27,12.47,8,20.43a25.42,25.42,0,0,0,19,8,30.74,30.74,0,0,0,10.63-1.89,27.93,27.93,0,0,0,8.78-5Q217.06,162.55,221.27,155.54Zm0-19.26a30.54,30.54,0,0,0-5.37-11.77,25.5,25.5,0,0,0-9.31-7.1,28.61,28.61,0,0,0-12.17-2.69,26.23,26.23,0,0,0-18.1,6.77q-5.53,4.94-8.36,14.79Z"/><path d="M317.5,155.54l7.75,4.07a42.09,42.09,0,0,1-8.81,12.09,35,35,0,0,1-11.25,7A39.24,39.24,0,0,1,291,181.1q-17.49,0-27.36-11.47a38.65,38.65,0,0,1-9.87-25.92,38.25,38.25,0,0,1,8.35-24.26q10.59-13.53,28.36-13.54,18.28,0,29.2,13.87,7.77,9.79,7.9,24.45H263.27q.27,12.47,8,20.43a25.42,25.42,0,0,0,19,8,30.7,30.7,0,0,0,10.63-1.89,28.1,28.1,0,0,0,8.79-5Q313.28,162.55,317.5,155.54Zm0-19.26a30.54,30.54,0,0,0-5.37-11.77,25.42,25.42,0,0,0-9.31-7.1,28.61,28.61,0,0,0-12.17-2.69,26.23,26.23,0,0,0-18.1,6.77q-5.54,4.94-8.36,14.79Z"/><path d="M57.05,199.55h8.8v38.62a37.34,37.34,0,0,1,11.74-10.52,28.62,28.62,0,0,1,13.88-3.48,24.2,24.2,0,0,1,13.6,3.89,23.18,23.18,0,0,1,8.76,10.46q2.82,6.55,2.83,20.57v35.17h-8.8v-32.6q0-11.81-.94-15.76-1.64-6.79-5.93-10.21t-11.28-3.42a21.72,21.72,0,0,0-14.29,5.27,24.8,24.8,0,0,0-8.32,13.07q-1.26,5-1.25,18.59v25.06h-8.8Z"/><path d="M199.59,225.92v68.34h-8.67V282.51a37.66,37.66,0,0,1-12.4,10.11,34.66,34.66,0,0,1-39.82-7.13,35.28,35.28,0,0,1-10.27-25.59,34.65,34.65,0,0,1,10.37-25.25,33.76,33.76,0,0,1,24.93-10.48A32.19,32.19,0,0,1,179,227.75a34.51,34.51,0,0,1,12,10.74V225.92Zm-35.14,6.73A26.49,26.49,0,0,0,141,246.38a27.7,27.7,0,0,0,0,27.61A26.91,26.91,0,0,0,151,284.24a26,26,0,0,0,13.4,3.67,27.37,27.37,0,0,0,13.67-3.64,25.38,25.38,0,0,0,9.95-9.84,28.14,28.14,0,0,0,3.48-14,27.18,27.18,0,0,0-7.81-19.83A25.88,25.88,0,0,0,164.45,232.65Z"/><path d="M214.26,225.92h8.79v31.91q0,11.69,1.26,16.08a18,18,0,0,0,7.2,9.92,21.85,21.85,0,0,0,12.67,3.64,21.45,21.45,0,0,0,12.49-3.54,18.16,18.16,0,0,0,7.07-9.33q1.33-4,1.33-16.77V225.92h9v33.54q0,14.13-3.3,21.29A25.19,25.19,0,0,1,260.83,292Q254.2,296,244.21,296T227.54,292a25,25,0,0,1-10-11.3q-3.28-7.26-3.29-21.83Z"/><path d="M324,233.4l-5.66,5.84q-7.05-6.84-13.79-6.85a10.43,10.43,0,0,0-7.33,2.83,8.71,8.71,0,0,0-3.06,6.59,9.78,9.78,0,0,0,2.52,6.35q2.52,3.08,10.57,7.22,9.82,5.08,13.35,9.8A17.89,17.89,0,0,1,324,275.92a19.23,19.23,0,0,1-5.92,14.25A20.14,20.14,0,0,1,303.31,296,25.8,25.8,0,0,1,292,293.44a24.56,24.56,0,0,1-8.9-7.1l5.53-6.28q6.74,7.6,14.29,7.6a12.89,12.89,0,0,0,9-3.39,10.47,10.47,0,0,0,3.72-8,10.21,10.21,0,0,0-2.46-6.72q-2.46-2.88-11.08-7.28-9.24-4.77-12.58-9.42a17.72,17.72,0,0,1-3.34-10.62,17.22,17.22,0,0,1,5.32-12.93A18.48,18.48,0,0,1,305,224.17Q314.39,224.17,324,233.4Z"/><path d="M349.84,348.87H35V34.06H349.84ZM39,344.88H345.85V38.05H39Z"/></symbol></svg>