<svg xmlns="http://www.w3.org/2000/svg" viewBox="0 0 1920 1080"><defs><style>.cls-1{fill:#fff;opacity:.5;}</style></defs><title>zoom</title><path class="cls-1" d="M1200.64,709,1129,637.28c23-35.84,35.84-76.8,35.84-122.88,0-128-102.4-230.4-230.4-230.4S704,386.4,704,514.4,806.4,744.8,934.4,744.8c46.08,0,87-12.8,122.88-35.84L1129,780.64c20.48,20.48,51.2,20.48,71.68,0S1221.12,729.44,1200.64,709ZM934.4,693.6c-99.84,0-179.2-79.36-179.2-179.2s79.36-179.2,179.2-179.2,179.2,79.36,179.2,179.2S1031.68,693.6,934.4,693.6Z"/><path class="cls-1" d="M1036.8,488.8H960V412c0-15.36-10.24-25.6-25.6-25.6s-25.6,12.8-25.6,25.6v76.8H832c-12.8,0-25.6,10.24-25.6,25.6S816.64,540,832,540h76.8v76.8c0,15.36,10.24,25.6,25.6,25.6S960,632.16,960,616.8V540h76.8c15.36,0,25.6-10.24,25.6-25.6S1049.6,488.8,1036.8,488.8Z"/></svg>